<?xml version="1.0" encoding="utf-8" standalone="no"?>
<!DOCTYPE svg PUBLIC "-//W3C//DTD SVG 1.1//EN"
  "http://www.w3.org/Graphics/SVG/1.1/DTD/svg11.dtd">
<svg xmlns:xlink="http://www.w3.org/1999/xlink" width="432pt" height="432pt" viewBox="0 0 432 432" xmlns="http://www.w3.org/2000/svg" version="1.1">
 <metadata>
  <rdf:RDF xmlns:dc="http://purl.org/dc/elements/1.1/" xmlns:cc="http://creativecommons.org/ns#" xmlns:rdf="http://www.w3.org/1999/02/22-rdf-syntax-ns#">
   <cc:Work>
    <dc:type rdf:resource="http://purl.org/dc/dcmitype/StillImage"/>
    <dc:date>2024-05-11T05:20:46.775234</dc:date>
    <dc:format>image/svg+xml</dc:format>
    <dc:creator>
     <cc:Agent>
      <dc:title>Matplotlib v3.6.3, https://matplotlib.org/</dc:title>
     </cc:Agent>
    </dc:creator>
   </cc:Work>
  </rdf:RDF>
 </metadata>
 <defs>
  <style type="text/css">*{stroke-linejoin: round; stroke-linecap: butt}</style>
 </defs>
 <g id="figure_1">
  <g id="patch_1">
   <path d="M 0 432 
L 432 432 
L 432 0 
L 0 0 
z
" style="fill: #ffffff"/>
  </g>
  <g id="axes_1">
   <g id="line2d_1">
    <path d="M 120.369782 128.402247 
L 127.725339 128.207916 
L 132.240143 122.397708 
L 130.643403 115.214923 
L 124.107244 111.835485 
L 117.310692 114.654858 
L 115.054575 121.658564 
L 118.899578 127.932154 
L 126.159042 129.133057 
L 131.840476 124.457239 
L 132.091349 117.103394 
L 126.764383 112.027429 
L 119.428566 112.599931 
L 114.92755 118.420827 
L 116.187026 125.670357 
L 122.369845 129.659683 
L 129.502321 127.851436 
L 133.066509 121.414158 
L 130.84489 114.399432 
L 124.239158 111.158092 
L 117.320305 113.662376 
L 114.28956 120.367342 
L 116.950334 127.227535 
L 123.696443 130.16556 
L 130.543627 127.471486 
L 133.509074 120.737386 
L 130.904209 113.855769 
L 124.236733 110.743415 
L 117.278043 113.134777 
L 113.903007 119.673209 
L 115.952746 126.740072 
L 122.285922 130.486118 
L 129.473464 128.910934 
L 133.686457 122.8783 
L 132.722886 115.583541 
L 127.109186 110.826615 
L 119.75417 111.040431 
L 114.403691 116.091604 
L 113.734588 123.419242 
L 118.055196 129.375274 
L 125.221166 131.045858 
L 131.74548 127.643608 
L 134.50799 120.823746 
L 132.221892 113.829768 
L 125.982038 109.930255 
L 118.689197 110.908236 
L 113.67311 116.291622 
L 113.179302 123.633157 
L 117.402415 129.658709 
L 124.462724 131.730911 
L 131.284818 128.97392 
L 134.951514 122.594476 
L 133.932351 115.307276 
L 128.679108 110.155052 
L 121.377484 109.244962 
L 115.003773 112.921616 
L 112.105785 119.685021 
L 113.808204 126.843495 
L 119.419467 131.603295 
L 126.757392 132.148126 
L 133.02732 128.297155 
L 135.889734 121.518618 
L 134.30971 114.332138 
L 128.890201 109.355102 
L 121.599834 108.358843 
L 115.028851 111.67006 
L 111.463158 118.106503 
L 112.108099 125.436307 
L 116.717419 131.171823 
L 123.726816 133.410199 
L 130.816067 131.439289 
L 135.689021 125.926005 
L 136.806659 118.653257 
L 133.844 111.91793 
L 127.746196 107.799829 
L 120.392849 107.534752 
L 113.998045 111.174594 
L 110.442529 117.616666 
L 110.738567 124.968831 
L 114.773092 131.122252 
L 121.383182 134.354694 
L 128.71987 133.793463 
L 134.780075 129.620228 
L 137.950755 122.980291 
L 137.419379 115.64138 
L 133.35258 109.509241 
L 126.813604 106.135259 
L 119.458373 106.341541 
L 113.102168 110.048377 
L 109.272666 116.33144 
L 108.85807 123.677874 
L 111.926517 130.365669 
L 117.745833 134.868728 
L 124.983806 136.193008 
L 132.030075 134.073558 
L 137.359141 128.999799 
L 139.852617 122.077043 
L 139.01537 114.766708 
L 135.0489 108.569202 
L 128.778423 104.719124 
L 121.460278 103.953139 
L 114.517524 106.390379 
L 109.260943 111.539197 
L 106.649705 118.418399 
L 107.132954 125.760636 
L 110.594359 132.253759 
L 116.400668 136.773577 
L 123.536669 138.567863 
L 130.79568 137.364227 
L 136.98848 133.390413 
L 141.13447 127.311536 
L 142.605702 120.101997 
L 141.205259 112.878374 
L 137.173886 106.722888 
L 131.130604 102.525184 
L 123.962391 100.864251 
L 116.683899 101.943848 
L 110.290108 105.585469 
L 105.623168 111.274199 
L 103.270207 118.245967 
L 103.502646 125.600418 
L 106.260736 132.422068 
L 111.18069 137.893451 
L 117.656599 141.386956 
L 124.925961 142.526408 
L 132.166139 141.214234 
L 138.58935 137.624759 
L 143.525558 132.168035 
L 146.485384 125.431463 
L 147.198442 118.107972 
L 145.62578 110.919877 
L 141.948098 104.546759 
L 136.533689 99.564174 
L 129.891619 96.397965 
L 122.616371 95.296722 
L 115.330144 96.322818 
L 108.628364 99.360599 
L 103.032855 104.13891 
L 98.955808 110.264239 
L 96.676234 117.260347 
L 96.329282 124.610285 
L 97.907624 131.797135 
L 101.273253 138.340416 
L 106.177412 143.82596 
L 112.286104 147.927893 
L 119.208569 150.422179 
L 126.52632 151.191911 
L 133.820655 150.225136 
L 140.696996 147.606375 
L 146.804922 143.503302 
L 151.853219 138.150109 
L 155.619727 131.829082 
L 157.956152 124.851754 
L 158.788291 117.540836 
L 158.112353 110.213826 
L 155.98816 103.168985 
L 152.530081 96.67409 
L 147.896544 90.958121 
L 142.278876 86.205881 
L 135.890167 82.55535 
L 128.954693 80.097469 
L 121.698329 78.87798 
L 114.340242 78.900904 
L 107.086044 80.133213 
L 100.12247 82.510314 
L 93.613559 85.94194 
L 87.698257 90.318146 
L 82.489295 95.515134 
L 78.073172 101.400696 
L 74.51106 107.839122 
L 71.840422 114.695482 
L 70.077171 121.839215 
L 69.218182 129.147027 
L 69.244013 136.505104 
L 70.121688 143.810695 
L 71.807446 150.973111 
L 74.24936 157.914222 
L 77.389761 164.568533 
L 81.167433 170.882895 
L 85.519537 176.815953 
L 90.383264 182.337377 
L 95.697214 187.426966 
L 101.402505 192.073646 
L 107.443637 196.274444 
L 113.769125 200.033456 
L 120.331934 203.360844 
L 127.089728 206.27189 
L 134.004973 208.786123 
L 141.044906 210.926523 
L 148.181406 212.718824 
L 155.390773 214.1909 
L 162.653444 215.372248 
L 169.953661 216.293555 
L 177.279097 216.986353 
L 184.620457 217.482738 
L 191.971067 217.815169 
L 206.683848 218.118945 
L 243.473559 218.303688 
L 250.828933 218.504831 
L 258.179543 218.837262 
L 265.520903 219.333647 
L 272.846339 220.026445 
L 280.146556 220.947752 
L 287.409227 222.1291 
L 294.618594 223.601176 
L 301.755094 225.393477 
L 308.795027 227.533877 
L 315.710272 230.04811 
L 322.468066 232.959156 
L 329.030875 236.286544 
L 335.356363 240.045556 
L 341.397495 244.246354 
L 347.102786 248.893034 
L 352.416736 253.982623 
L 357.280463 259.504047 
L 361.632567 265.437105 
L 365.410239 271.751467 
L 368.55064 278.405778 
L 370.992554 285.346889 
L 372.678312 292.509305 
L 373.555987 299.814896 
L 373.581818 307.172973 
L 372.722829 314.480785 
L 370.959578 321.624518 
L 368.28894 328.480878 
L 364.726828 334.919304 
L 360.310705 340.804866 
L 355.101743 346.001854 
L 349.186441 350.37806 
L 342.67753 353.809686 
L 335.713956 356.186787 
L 328.459758 357.419096 
L 321.101671 357.44202 
L 313.845307 356.222531 
L 306.909833 353.76465 
L 300.521124 350.114119 
L 294.903456 345.361879 
L 290.269919 339.64591 
L 286.81184 333.151015 
L 284.687647 326.106174 
L 284.011709 318.779164 
L 284.843848 311.468246 
L 287.180273 304.490918 
L 290.946781 298.169891 
L 295.995078 292.816698 
L 302.103004 288.713625 
L 308.979345 286.094864 
L 316.27368 285.128089 
L 323.591431 285.897821 
L 330.513896 288.392107 
L 336.622588 292.49404 
L 341.526747 297.979584 
L 344.892376 304.522865 
L 346.470718 311.709715 
L 346.123766 319.059653 
L 343.844192 326.055761 
L 339.767145 332.18109 
L 334.171636 336.959401 
L 327.469856 339.997182 
L 320.183629 341.023278 
L 312.908381 339.922035 
L 306.266311 336.755826 
L 300.851902 331.773241 
L 297.17422 325.400123 
L 295.601558 318.212028 
L 296.314616 310.888537 
L 299.274442 304.151965 
L 304.21065 298.695241 
L 310.633861 295.105766 
L 317.874039 293.793592 
L 325.143401 294.933044 
L 331.61931 298.426549 
L 336.539264 303.897932 
L 339.297354 310.719582 
L 339.529793 318.074033 
L 337.176832 325.045801 
L 332.509892 330.734531 
L 326.116101 334.376152 
L 318.837609 335.455749 
L 311.669396 333.794816 
L 305.626114 329.597112 
L 301.594741 323.441626 
L 300.194298 316.218003 
L 301.66553 309.008464 
L 305.81152 302.929587 
L 312.00432 298.955773 
L 319.263331 297.752137 
L 326.399332 299.546423 
L 332.205641 304.066241 
L 335.667046 310.559364 
L 336.150295 317.901601 
L 333.539057 324.780803 
L 328.282476 329.929621 
L 321.339722 332.366861 
L 314.021577 331.600876 
L 307.7511 327.750798 
L 303.78463 321.553292 
L 302.947383 314.242957 
L 305.440859 307.320201 
L 310.769925 302.246442 
L 317.816194 300.126992 
L 325.054167 301.451272 
L 330.873483 305.954331 
L 333.94193 312.642126 
L 333.527334 319.98856 
L 329.697832 326.271623 
L 323.341627 329.978459 
L 315.986396 330.184741 
L 309.44742 326.810759 
L 305.380621 320.67862 
L 304.849245 313.339709 
L 308.019925 306.699772 
L 314.08013 302.526537 
L 321.416818 301.965306 
L 328.026908 305.197748 
L 332.061433 311.351169 
L 332.357471 318.703334 
L 328.801955 325.145406 
L 322.407151 328.785248 
L 315.053804 328.520171 
L 308.956 324.40207 
L 305.993341 317.666743 
L 307.110979 310.393995 
L 311.983933 304.880711 
L 319.073184 302.909801 
L 326.082581 305.148177 
L 330.691901 310.883693 
L 331.336842 318.213497 
L 327.771149 324.64994 
L 321.200166 327.961157 
L 313.909799 326.964898 
L 308.49029 321.987862 
L 306.910266 314.801382 
L 309.77268 308.022845 
L 316.042608 304.171874 
L 323.380533 304.716705 
L 328.991796 309.476505 
L 330.694215 316.634979 
L 327.796227 323.398384 
L 321.422516 327.075038 
L 314.120892 326.164948 
L 308.867649 321.012724 
L 307.848486 313.725524 
L 311.515182 307.34608 
L 318.337276 304.589089 
L 325.397585 306.661291 
L 329.620698 312.686843 
L 329.12689 320.028378 
L 324.110803 325.411764 
L 316.817962 326.389745 
L 310.578108 322.490232 
L 308.29201 315.496254 
L 311.05452 308.676392 
L 317.578834 305.274142 
L 324.744804 306.944726 
L 329.065412 312.900758 
L 328.396309 320.228396 
L 323.04583 325.279569 
L 315.690814 325.493385 
L 310.077114 320.736459 
L 309.113543 313.4417 
L 313.326536 307.409066 
L 320.514078 305.833882 
L 326.847254 309.579928 
L 328.896993 316.646791 
L 325.521957 323.185223 
L 318.563267 325.576585 
L 311.895791 322.464231 
L 309.290926 315.582614 
L 312.256373 308.848514 
L 319.103557 306.15444 
L 325.849666 309.092465 
L 328.51044 315.952658 
L 325.479695 322.657624 
L 318.560842 325.161908 
L 311.95511 321.920568 
L 309.733491 314.905842 
L 313.297679 308.468564 
L 320.430155 306.660317 
L 326.612974 310.649643 
L 327.87245 317.899173 
L 323.371434 323.720069 
L 316.035617 324.292571 
L 310.708651 319.216606 
L 310.959524 311.862761 
L 316.640958 307.186943 
L 323.900422 308.387846 
L 327.745425 314.661436 
L 325.489308 321.665142 
L 318.692756 324.484515 
L 312.156597 321.105077 
L 310.559857 313.922292 
L 315.074661 308.112084 
L 322.430218 307.917753 
L 327.220635 313.502901 
L 327.220635 313.502901 
" clip-path="url(#p830f97a974)" style="fill: none; stroke: #000000; stroke-width: 2.5; stroke-linecap: square"/>
   </g>
   <g id="line2d_2">
    <path d="M 120.369782 128.402247 
L 127.725339 128.207916 
L 132.240143 122.397708 
L 130.643403 115.214923 
L 124.107244 111.835485 
L 117.310692 114.654858 
L 115.054575 121.658564 
L 118.899578 127.932154 
L 126.159042 129.133057 
L 131.840476 124.457239 
L 132.091349 117.103394 
L 126.764383 112.027429 
L 119.428566 112.599931 
L 114.92755 118.420827 
L 116.187026 125.670357 
L 122.369845 129.659683 
L 129.502321 127.851436 
L 133.066509 121.414158 
L 130.84489 114.399432 
L 124.239158 111.158092 
L 117.320305 113.662376 
L 114.28956 120.367342 
L 116.950334 127.227535 
L 123.696443 130.16556 
L 130.543627 127.471486 
L 133.509074 120.737386 
L 130.904209 113.855769 
L 124.236733 110.743415 
L 117.278043 113.134777 
L 113.903007 119.673209 
L 115.952746 126.740072 
L 122.285922 130.486118 
L 129.473464 128.910934 
L 133.686457 122.8783 
L 132.722886 115.583541 
L 127.109186 110.826615 
L 119.75417 111.040431 
L 114.403691 116.091604 
L 113.734588 123.419242 
L 118.055196 129.375274 
L 125.221166 131.045858 
L 131.74548 127.643608 
L 134.50799 120.823746 
L 132.221892 113.829768 
L 125.982038 109.930255 
L 118.689197 110.908236 
L 113.67311 116.291622 
L 113.179302 123.633157 
L 117.402415 129.658709 
L 124.462724 131.730911 
L 131.284818 128.97392 
L 134.951514 122.594476 
L 133.932351 115.307276 
L 128.679108 110.155052 
L 121.377484 109.244962 
L 115.003773 112.921616 
L 112.105785 119.685021 
L 113.808204 126.843495 
L 119.419467 131.603295 
L 126.757392 132.148126 
L 133.02732 128.297155 
L 135.889734 121.518618 
L 134.30971 114.332138 
L 128.890201 109.355102 
L 121.599834 108.358843 
L 115.028851 111.67006 
L 111.463158 118.106503 
L 112.108099 125.436307 
L 116.717419 131.171823 
L 123.726816 133.410199 
L 130.816067 131.439289 
L 135.689021 125.926005 
L 136.806659 118.653257 
L 133.844 111.91793 
L 127.746196 107.799829 
L 120.392849 107.534752 
L 113.998045 111.174594 
L 110.442529 117.616666 
L 110.738567 124.968831 
L 114.773092 131.122252 
L 121.383182 134.354694 
L 128.71987 133.793463 
L 134.780075 129.620228 
L 137.950755 122.980291 
L 137.419379 115.64138 
L 133.35258 109.509241 
L 126.813604 106.135259 
L 119.458373 106.341541 
L 113.102168 110.048377 
L 109.272666 116.33144 
L 108.85807 123.677874 
L 111.926517 130.365669 
L 117.745833 134.868728 
L 124.983806 136.193008 
L 132.030075 134.073558 
L 137.359141 128.999799 
L 139.852617 122.077043 
L 139.01537 114.766708 
L 135.0489 108.569202 
L 128.778423 104.719124 
L 121.460278 103.953139 
L 114.517524 106.390379 
L 109.260943 111.539197 
L 106.649705 118.418399 
L 107.132954 125.760636 
L 110.594359 132.253759 
L 116.400668 136.773577 
L 123.536669 138.567863 
L 130.79568 137.364227 
L 136.98848 133.390413 
L 141.13447 127.311536 
L 142.605702 120.101997 
L 141.205259 112.878374 
L 137.173886 106.722888 
L 131.130604 102.525184 
L 123.962391 100.864251 
L 116.683899 101.943848 
L 110.290108 105.585469 
L 105.623168 111.274199 
L 103.270207 118.245967 
L 103.502646 125.600418 
L 106.260736 132.422068 
L 111.18069 137.893451 
L 117.656599 141.386956 
L 124.925961 142.526408 
L 132.166139 141.214234 
L 138.58935 137.624759 
L 143.525558 132.168035 
L 146.485384 125.431463 
L 147.198442 118.107972 
L 145.62578 110.919877 
L 141.948098 104.546759 
L 136.533689 99.564174 
L 129.891619 96.397965 
L 122.616371 95.296722 
L 115.330144 96.322818 
L 108.628364 99.360599 
L 103.032855 104.13891 
L 98.955808 110.264239 
L 96.676234 117.260347 
L 96.329282 124.610285 
L 97.907624 131.797135 
L 101.273253 138.340416 
L 106.177412 143.82596 
L 112.286104 147.927893 
L 119.208569 150.422179 
L 126.52632 151.191911 
L 133.820655 150.225136 
L 140.696996 147.606375 
L 146.804922 143.503302 
L 151.853219 138.150109 
L 155.619727 131.829082 
L 157.956152 124.851754 
L 158.788291 117.540836 
L 158.112353 110.213826 
L 155.98816 103.168985 
L 152.530081 96.67409 
L 147.896544 90.958121 
L 142.278876 86.205881 
L 135.890167 82.55535 
L 128.954693 80.097469 
L 121.698329 78.87798 
L 114.340242 78.900904 
L 107.086044 80.133213 
L 100.12247 82.510314 
L 93.613559 85.94194 
L 87.698257 90.318146 
L 82.489295 95.515134 
L 78.073172 101.400696 
L 74.51106 107.839122 
L 71.840422 114.695482 
L 70.077171 121.839215 
L 69.218182 129.147027 
L 69.244013 136.505104 
L 70.121688 143.810695 
L 71.807446 150.973111 
L 74.24936 157.914222 
L 77.389761 164.568533 
L 81.167433 170.882895 
L 85.519537 176.815953 
L 90.383264 182.337377 
L 95.697214 187.426966 
L 101.402505 192.073646 
L 107.443637 196.274444 
L 113.769125 200.033456 
L 120.331934 203.360844 
L 127.089728 206.27189 
L 134.004973 208.786123 
L 141.044906 210.926523 
L 148.181406 212.718824 
L 155.390773 214.1909 
L 162.653444 215.372248 
L 169.953661 216.293555 
L 177.279097 216.986353 
L 184.620457 217.482738 
L 191.971067 217.815169 
L 206.683848 218.118945 
L 243.473559 218.303688 
L 250.828933 218.504831 
L 258.179543 218.837262 
L 265.520903 219.333647 
L 272.846339 220.026445 
L 280.146556 220.947752 
L 287.409227 222.1291 
L 294.618594 223.601176 
L 301.755094 225.393477 
L 308.795027 227.533877 
L 315.710272 230.04811 
L 322.468066 232.959156 
L 329.030875 236.286544 
L 335.356363 240.045556 
L 341.397495 244.246354 
L 347.102786 248.893034 
L 352.416736 253.982623 
L 357.280463 259.504047 
L 361.632567 265.437105 
L 365.410239 271.751467 
L 368.55064 278.405778 
L 370.992554 285.346889 
L 372.678312 292.509305 
L 373.555987 299.814896 
L 373.581818 307.172973 
L 372.722829 314.480785 
L 370.959578 321.624518 
L 368.28894 328.480878 
L 364.726828 334.919304 
L 360.310705 340.804866 
L 355.101743 346.001854 
L 349.186441 350.37806 
L 342.67753 353.809686 
L 335.713956 356.186787 
L 328.459758 357.419096 
L 321.101671 357.44202 
L 313.845307 356.222531 
L 306.909833 353.76465 
L 300.521124 350.114119 
L 294.903456 345.361879 
L 290.269919 339.64591 
L 286.81184 333.151015 
L 284.687647 326.106174 
L 284.011709 318.779164 
L 284.843848 311.468246 
L 287.180273 304.490918 
L 290.946781 298.169891 
L 295.995078 292.816698 
L 302.103004 288.713625 
L 308.979345 286.094864 
L 316.27368 285.128089 
L 323.591431 285.897821 
L 330.513896 288.392107 
L 336.622588 292.49404 
L 341.526747 297.979584 
L 344.892376 304.522865 
L 346.470718 311.709715 
L 346.123766 319.059653 
L 343.844192 326.055761 
L 339.767145 332.18109 
L 334.171636 336.959401 
L 327.469856 339.997182 
L 320.183629 341.023278 
L 312.908381 339.922035 
L 306.266311 336.755826 
L 300.851902 331.773241 
L 297.17422 325.400123 
L 295.601558 318.212028 
L 296.314616 310.888537 
L 299.274442 304.151965 
L 304.21065 298.695241 
L 310.633861 295.105766 
L 317.874039 293.793592 
L 325.143401 294.933044 
L 331.61931 298.426549 
L 336.539264 303.897932 
L 339.297354 310.719582 
L 339.529793 318.074033 
L 337.176832 325.045801 
L 332.509892 330.734531 
L 326.116101 334.376152 
L 318.837609 335.455749 
L 311.669396 333.794816 
L 305.626114 329.597112 
L 301.594741 323.441626 
L 300.194298 316.218003 
L 301.66553 309.008464 
L 305.81152 302.929587 
L 312.00432 298.955773 
L 319.263331 297.752137 
L 326.399332 299.546423 
L 332.205641 304.066241 
L 335.667046 310.559364 
L 336.150295 317.901601 
L 333.539057 324.780803 
L 328.282476 329.929621 
L 321.339722 332.366861 
L 314.021577 331.600876 
L 307.7511 327.750798 
L 303.78463 321.553292 
L 302.947383 314.242957 
L 305.440859 307.320201 
L 310.769925 302.246442 
L 317.816194 300.126992 
L 325.054167 301.451272 
L 330.873483 305.954331 
L 333.94193 312.642126 
L 333.527334 319.98856 
L 329.697832 326.271623 
L 323.341627 329.978459 
L 315.986396 330.184741 
L 309.44742 326.810759 
L 305.380621 320.67862 
L 304.849245 313.339709 
L 308.019925 306.699772 
L 314.08013 302.526537 
L 321.416818 301.965306 
L 328.026908 305.197748 
L 332.061433 311.351169 
L 332.357471 318.703334 
L 328.801955 325.145406 
L 322.407151 328.785248 
L 315.053804 328.520171 
L 308.956 324.40207 
L 305.993341 317.666743 
L 307.110979 310.393995 
L 311.983933 304.880711 
L 319.073184 302.909801 
L 326.082581 305.148177 
L 330.691901 310.883693 
L 331.336842 318.213497 
L 327.771149 324.64994 
L 321.200166 327.961157 
L 313.909799 326.964898 
L 308.49029 321.987862 
L 306.910266 314.801382 
L 309.77268 308.022845 
L 316.042608 304.171874 
L 323.380533 304.716705 
L 328.991796 309.476505 
L 330.694215 316.634979 
L 327.796227 323.398384 
L 321.422516 327.075038 
L 314.120892 326.164948 
L 308.867649 321.012724 
L 307.848486 313.725524 
L 311.515182 307.34608 
L 318.337276 304.589089 
L 325.397585 306.661291 
L 329.620698 312.686843 
L 329.12689 320.028378 
L 324.110803 325.411764 
L 316.817962 326.389745 
L 310.578108 322.490232 
L 308.29201 315.496254 
L 311.05452 308.676392 
L 317.578834 305.274142 
L 324.744804 306.944726 
L 329.065412 312.900758 
L 328.396309 320.228396 
L 323.04583 325.279569 
L 315.690814 325.493385 
L 310.077114 320.736459 
L 309.113543 313.4417 
L 313.326536 307.409066 
L 320.514078 305.833882 
L 326.847254 309.579928 
L 328.896993 316.646791 
L 325.521957 323.185223 
L 318.563267 325.576585 
L 311.895791 322.464231 
L 309.290926 315.582614 
L 312.256373 308.848514 
L 319.103557 306.15444 
L 325.849666 309.092465 
L 328.51044 315.952658 
L 325.479695 322.657624 
L 318.560842 325.161908 
L 311.95511 321.920568 
L 309.733491 314.905842 
L 313.297679 308.468564 
L 320.430155 306.660317 
L 326.612974 310.649643 
L 327.87245 317.899173 
L 323.371434 323.720069 
L 316.035617 324.292571 
L 310.708651 319.216606 
L 310.959524 311.862761 
L 316.640958 307.186943 
L 323.900422 308.387846 
L 327.745425 314.661436 
L 325.489308 321.665142 
L 318.692756 324.484515 
L 312.156597 321.105077 
L 310.559857 313.922292 
L 315.074661 308.112084 
L 322.430218 307.917753 
L 327.220635 313.502901 
L 327.220635 313.502901 
" clip-path="url(#p830f97a974)" style="fill: none; stroke: #008000; stroke-width: 1.5; stroke-linecap: square"/>
   </g>
  </g>
 </g>
 <defs>
  <clipPath id="p830f97a974">
   <rect x="54" y="51.84" width="334.8" height="332.64"/>
  </clipPath>
 </defs>
</svg>
